<svg width="150" height="30" viewBox="0 0 150 30" fill="none" xmlns="http://www.w3.org/2000/svg">
<path d="M11.37 29H0.1V4.43H10.565C15.78 4.43 17.915 7.615 17.915 10.485C17.915 14.615 14.905 16.12 12.56 16.295V16.435C15.29 16.61 19.525 17.835 19.525 21.895C19.525 25.36 16.865 29 11.37 29ZM4.3 4.955V16.155H9.34C11.125 16.155 14.03 14.72 14.03 10.695C14.03 8 12.35 4.955 8.745 4.955H4.3ZM4.3 16.68V28.475H9.06C13.225 28.475 15.36 25.15 15.36 22.245C15.36 17.835 11.72 16.68 9.34 16.68H4.3ZM31.9653 29.595C25.6653 29.595 21.8503 25.465 21.8503 18.955C21.8503 12.375 25.6653 8.175 31.9653 8.175C38.1253 8.175 42.0803 12.375 42.0803 18.955C42.0803 25.465 38.1253 29.595 31.9653 29.595ZM31.9653 29.07C35.8853 29.07 38.0903 24.1 38.0903 18.955C38.0903 14.09 35.8853 8.7 31.9653 8.7C27.8353 8.7 25.8403 14.09 25.8403 18.955C25.8403 24.1 27.8353 29.07 31.9653 29.07ZM58.9705 8.175C61.3855 8.175 63.8005 9.715 63.8005 13.39V29H59.6005V13.46C59.6005 10.695 58.5155 9.54 56.9755 9.54C54.6655 9.54 51.3405 12.095 49.1355 16.155V29H44.9355V8.77H49.1355V15.21C52.0405 10.345 55.8555 8.175 58.9705 8.175ZM82.076 8.175C84.491 8.175 86.906 9.715 86.906 13.39V29H82.706V13.46C82.706 10.695 81.621 9.54 80.081 9.54C77.771 9.54 74.446 12.095 72.241 16.155V29H68.041V8.77H72.241V15.21C75.146 10.345 78.961 8.175 82.076 8.175ZM93.4215 6.81C92.1615 6.81 91.1465 5.83 91.1465 4.57C91.1465 3.31 92.1615 2.295 93.4215 2.295C94.6815 2.295 95.6615 3.31 95.6615 4.57C95.6615 5.83 94.6815 6.81 93.4215 6.81ZM95.5215 29H91.3215V8.77H95.5215V29ZM108.085 29.665C104.34 29.665 100.665 27.075 100.665 22.7V9.295H98.5648V8.77H101.33C103.325 6.985 104.34 3.905 104.34 0.929998H104.865V8.77H110.115V9.295H104.865V25.43C104.865 27.95 106.09 29.175 107.56 29.175C109.415 29.175 111.69 27.145 113.23 23.715L114.315 26.27C112.88 28.58 110.465 29.665 108.085 29.665ZM122.68 29.665C118.935 29.665 115.26 27.075 115.26 22.7V9.295H113.16V8.77H115.925C117.92 6.985 118.935 3.905 118.935 0.929998H119.46V8.77H124.71V9.295H119.46V25.43C119.46 27.95 120.685 29.175 122.155 29.175C124.01 29.175 126.285 27.145 127.825 23.715L128.91 26.27C127.475 28.58 125.06 29.665 122.68 29.665ZM139.187 29.595C132.887 29.595 129.072 25.465 129.072 18.955C129.072 12.375 132.887 8.175 139.187 8.175C145.347 8.175 149.302 12.375 149.302 18.955C149.302 25.465 145.347 29.595 139.187 29.595ZM139.187 29.07C143.107 29.07 145.312 24.1 145.312 18.955C145.312 14.09 143.107 8.7 139.187 8.7C135.057 8.7 133.062 14.09 133.062 18.955C133.062 24.1 135.057 29.07 139.187 29.07Z" fill="#1E1E1E"/>
</svg>
