<svg width="515" height="659" viewBox="0 0 515 659" fill="none" xmlns="http://www.w3.org/2000/svg">
<path d="M505.918 375.5C505.918 462.142 486.398 530.599 446.579 577.297C406.965 623.755 346.12 650 260.445 650C170.182 650 107.683 620.378 67.5605 572.128C27.2182 523.614 8.49985 455.069 8.5 375.5C8.50017 285.155 35.9494 216.815 80.3694 171.104C124.793 125.39 186.97 101.5 258 101.5C328.717 101.5 390.532 128.471 434.715 175.918C478.921 223.389 505.918 291.852 505.918 375.5Z" stroke="black" stroke-width="17"/>
<path d="M119.485 117.924C120.436 113.332 122.042 108.901 124.257 104.768C127.009 99.6308 130.658 95.0284 135.033 91.1785L136.143 90.2017C139.317 87.4092 142.791 84.9785 146.501 82.9544L148.203 82.0266C154.311 78.6947 160.888 76.3059 167.711 74.9413L168.218 74.8399C172.674 73.9488 177.207 73.5 181.75 73.5H189.272C193.692 73.5 198.103 73.9248 202.442 74.7685L203.666 75.0066C210.462 76.328 217.02 78.6646 223.121 81.938L231.003 86.1675C233.273 87.3856 235.405 88.8457 237.361 90.5223L238.442 91.4491C242.679 95.0806 247.827 97.4849 253.331 98.4022L253.574 98.4427C255.796 98.8129 258.053 98.9189 260.299 98.7585L260.714 98.7289C267.295 98.2588 273.486 95.4317 278.152 90.7661C279.327 89.5911 280.606 88.5254 281.974 87.582L284.99 85.5019C291.231 81.1979 298.151 77.9735 305.46 75.9633L306.402 75.7043C311.727 74.24 317.208 73.4203 322.728 73.2626L326.496 73.1549C330.105 73.0518 333.717 73.2321 337.297 73.6941L339.367 73.9612C344.716 74.6513 349.965 75.9663 355.008 77.879L357.247 78.7282C360.357 79.9079 363.377 81.3108 366.285 82.9262L366.97 83.3068C372.575 86.4204 377.718 90.2999 382.251 94.8333L388.475 101.057C391.409 103.991 393.746 107.467 395.356 111.291C396.393 113.754 397.119 116.337 397.515 118.98L397.764 120.641C398.199 123.54 398.352 126.475 398.222 129.403L398.087 132.441C397.649 142.31 394.644 151.893 389.369 160.245C386.746 164.397 383.596 168.192 379.996 171.534L379.804 171.713C374.265 176.856 367.787 180.883 360.724 183.574L356.042 185.358C352.3 186.783 348.441 187.88 344.508 188.636L317.98 193.738C313.616 194.577 309.342 195.836 305.22 197.498L282.607 206.611C279.497 207.864 276.58 209.551 273.943 211.623L273.862 211.687C271.905 213.225 270.12 214.969 268.538 216.89C265.491 220.589 263.248 224.883 261.95 229.496L259.418 238.5L259.324 238.815C258.629 241.129 255.276 240.89 254.918 238.5L252.299 229.187C251.05 224.747 249.242 220.484 246.918 216.5C243.95 211.553 239.995 207.27 235.301 203.916L234.379 203.258C230.428 200.436 226.069 198.236 221.451 196.736L214.55 194.493C210.471 193.167 206.277 192.225 202.022 191.678L173.418 188L158.57 184.139C151.858 182.394 145.519 179.443 139.864 175.429L138.523 174.478C134.807 171.841 131.502 168.667 128.715 165.061C125.867 161.375 123.593 157.279 121.971 152.912L121.436 151.473C119.109 145.208 117.918 138.578 117.918 131.895V131.488C117.918 127.506 118.324 123.535 119.131 119.636L119.485 117.924Z" fill="black"/>
<rect x="252.918" y="219" width="8" height="100" fill="black"/>
<rect x="252.918" y="518" width="8" height="124" fill="black"/>
<path d="M208.168 48.75L257.878 11.7498L305.668 48.75L282.668 74.2501L270.168 95.2501L257.878 104.75L245.168 95.2501L232.168 74.2501L208.168 48.75Z" fill="black"/>
<path d="M121.418 257.5L133.886 256.516C138.234 256.172 142.602 256.172 146.95 256.516L151.775 256.897C156.86 257.298 161.896 258.167 166.821 259.493L172.418 261L186.899 266.298C190.906 267.764 194.793 269.536 198.528 271.6L205.733 275.582C209.849 277.856 213.764 280.477 217.436 283.415L221.521 286.683C225.113 289.556 228.459 292.723 231.526 296.151L235.418 300.5L242.274 307.356C245.568 310.65 250.035 312.5 254.692 312.5C259.615 312.5 264.312 310.434 267.638 306.805L273.418 300.5L283.918 291L297.918 280.5L312.473 271.98C316.43 269.664 320.571 267.68 324.855 266.048L330.52 263.89C336.432 261.637 342.583 260.068 348.853 259.213L350.418 259L357.869 257.896C361.896 257.3 365.962 257 370.033 257H389.228C393.349 257 397.464 257.307 401.54 257.918L415.418 260L430.567 264.228C434.794 265.407 438.921 266.92 442.909 268.753L448.611 271.372C453.14 273.453 457.472 275.938 461.555 278.796L464.856 281.107C471.85 286.002 477.99 292.015 483.031 298.905L483.423 299.44C488.057 305.773 491.649 312.805 494.064 320.27C495.298 324.084 496.219 327.991 496.817 331.955L498.613 343.852C499.48 349.601 499.742 355.426 499.392 361.231L498.036 383.741C497.629 390.493 495.701 397.066 492.396 402.968C491.08 405.318 489.555 407.545 487.84 409.621L480.918 418L470.44 427.58C465.774 431.846 460.636 435.565 455.126 438.664L446.334 443.609C441.734 446.197 436.897 448.34 431.89 450.009L422.918 453L410.207 455.748C406.352 456.582 402.444 457.139 398.51 457.417L369.307 459.478C364.391 459.825 359.515 460.61 354.738 461.822L338.775 465.872C331.899 467.617 325.274 470.236 319.064 473.666L307.215 480.209C299.075 484.704 291.748 490.536 285.54 497.46L281.918 501.5L275.908 509.513C272.921 513.496 270.298 517.74 268.071 522.194L267.185 523.965C265.011 528.313 263.223 532.844 261.842 537.505L259.918 544C258.892 547.249 254.374 547.458 253.052 544.318L252.918 544L248.918 530.5L247.517 526.999C244.468 519.375 240.304 512.246 235.162 505.845L228.905 498.055C221.983 489.439 213.411 482.291 203.689 477.032L197.259 473.554C191.057 470.198 184.452 467.647 177.605 465.961L162.515 462.247C157.793 461.085 152.978 460.339 148.125 460.02L117.418 458L99.2126 454.359C94.6907 453.455 90.252 452.175 85.9427 450.533L77.9386 447.484C73.5992 445.831 69.4061 443.817 65.4036 441.462L60.262 438.438C56.3724 436.15 52.676 433.548 49.2093 430.659L42.1128 424.746C38.3238 421.588 34.8238 418.099 31.6542 414.32L26.0324 407.617C24.2929 405.543 22.7424 403.318 21.3995 400.968C17.4797 394.108 15.418 386.344 15.418 378.444V352.5V342.026C15.418 337.691 15.932 333.37 16.9493 329.156C18.2542 323.75 20.3735 318.574 23.2347 313.805L25.4083 310.183C28.0755 305.737 31.1558 301.554 34.6085 297.687L36.4151 295.663C40.0746 291.565 44.1321 287.839 48.5279 284.543L53.5855 280.749C57.7976 277.59 62.3007 274.839 67.034 272.533L73.2721 269.494C77.3624 267.501 81.6097 265.848 85.971 264.552L97.918 261L121.418 257.5Z" fill="black"/>
</svg>
