<svg width="214" height="42" viewBox="0 0 214 42" fill="none" xmlns="http://www.w3.org/2000/svg">
<path d="M16.1 41H1.19209e-07V5.9H14.95C22.4 5.9 25.45 10.45 25.45 14.55C25.45 20.45 21.15 22.6 17.8 22.85V23.05C21.7 23.3 27.75 25.05 27.75 30.85C27.75 35.8 23.95 41 16.1 41ZM6 6.65V22.65H13.2C15.75 22.65 19.9 20.6 19.9 14.85C19.9 11 17.5 6.65 12.35 6.65H6ZM6 23.4V40.25H12.8C18.75 40.25 21.8 35.5 21.8 31.35C21.8 25.05 16.6 23.4 13.2 23.4H6ZM45.5219 41.85C36.5219 41.85 31.0719 35.95 31.0719 26.65C31.0719 17.25 36.5219 11.25 45.5219 11.25C54.3219 11.25 59.9719 17.25 59.9719 26.65C59.9719 35.95 54.3219 41.85 45.5219 41.85ZM45.5219 41.1C51.1219 41.1 54.2719 34 54.2719 26.65C54.2719 19.7 51.1219 12 45.5219 12C39.6219 12 36.7719 19.7 36.7719 26.65C36.7719 34 39.6219 41.1 45.5219 41.1ZM84.1008 11.25C87.5508 11.25 91.0008 13.45 91.0008 18.7V41H85.0008V18.8C85.0008 14.85 83.4508 13.2 81.2508 13.2C77.9508 13.2 73.2008 16.85 70.0508 22.65V41H64.0508V12.1H70.0508V21.3C74.2008 14.35 79.6508 11.25 84.1008 11.25ZM117.109 11.25C120.559 11.25 124.009 13.45 124.009 18.7V41H118.009V18.8C118.009 14.85 116.459 13.2 114.259 13.2C110.959 13.2 106.209 16.85 103.059 22.65V41H97.0586V12.1H103.059V21.3C107.209 14.35 112.659 11.25 117.109 11.25ZM133.316 9.3C131.516 9.3 130.066 7.9 130.066 6.1C130.066 4.3 131.516 2.85 133.316 2.85C135.116 2.85 136.516 4.3 136.516 6.1C136.516 7.9 135.116 9.3 133.316 9.3ZM136.316 41H130.316V12.1H136.316V41ZM154.264 41.95C148.914 41.95 143.664 38.25 143.664 32V12.85H140.664V12.1H144.614C147.464 9.55 148.914 5.15 148.914 0.899998H149.664V12.1H157.164V12.85H149.664V35.9C149.664 39.5 151.414 41.25 153.514 41.25C156.164 41.25 159.414 38.35 161.614 33.45L163.164 37.1C161.114 40.4 157.664 41.95 154.264 41.95ZM175.114 41.95C169.764 41.95 164.514 38.25 164.514 32V12.85H161.514V12.1H165.464C168.314 9.55 169.764 5.15 169.764 0.899998H170.514V12.1H178.014V12.85H170.514V35.9C170.514 39.5 172.264 41.25 174.364 41.25C177.014 41.25 180.264 38.35 182.464 33.45L184.014 37.1C181.964 40.4 178.514 41.95 175.114 41.95ZM198.696 41.85C189.696 41.85 184.246 35.95 184.246 26.65C184.246 17.25 189.696 11.25 198.696 11.25C207.496 11.25 213.146 17.25 213.146 26.65C213.146 35.95 207.496 41.85 198.696 41.85ZM198.696 41.1C204.296 41.1 207.446 34 207.446 26.65C207.446 19.7 204.296 12 198.696 12C192.796 12 189.946 19.7 189.946 26.65C189.946 34 192.796 41.1 198.696 41.1Z" fill="white"/>
</svg>
